<svg xmlns="http://www.w3.org/2000/svg" width="16" height="16" viewBox="0 0 16 16"><g transform="translate(0.18 0.18) scale(0.49)"><circle cx="8" cy="8" r="7.5" fill="#E8538F"/><circle cx="8" cy="8" r="3.1" stroke="#fff" stroke-width="2.465" fill="none"/></g><g transform="translate(7.98 0.18) scale(0.49)"><circle cx="8" cy="8" r="7.5" fill="#12A39B"/><path d="M6.3 4.9v6.2a.5.5 0 0 0 .77.42l4.6-3.1a.5.5 0 0 0 0-.84l-4.6-3.1a.5.5 0 0 0-.77.42z" fill="#fff"/></g><polygon points="8.00,4.80 8.90,6.96 11.23,7.15 9.46,8.67 10.00,10.95 8.00,9.73 6.00,10.95 6.54,8.67 4.77,7.15 7.10,6.96" fill="#E8A317" stroke="#fff" stroke-width="1" stroke-linejoin="round" paint-order="stroke"/></svg>
